<mxfile host="app.diagrams.net" agent="Mozilla/5.0 (Macintosh; Intel Mac OS X 10_15_7) AppleWebKit/537.36 (KHTML, like Gecko) Chrome/135.0.0.0 Safari/537.36" version="26.1.0">
  <diagram id="EaQLvFzgGdlvqVkGepot" name="Page-1">
    <mxGraphModel grid="1" page="1" gridSize="10" guides="1" tooltips="1" connect="1" arrows="1" fold="1" pageScale="1" pageWidth="827" pageHeight="1169" math="0" shadow="0">
      <root>
        <mxCell id="0" />
        <mxCell id="1" parent="0" />
        <mxCell id="_3YSMg3rCEPzZk0EX57V-3" value="" style="rounded=1;whiteSpace=wrap;html=1;fillColor=#e1d5e7;strokeColor=#9673a6;" vertex="1" parent="1">
          <mxGeometry x="370" y="-350" width="770" height="730" as="geometry" />
        </mxCell>
        <mxCell id="_3YSMg3rCEPzZk0EX57V-2" value="" style="rounded=1;whiteSpace=wrap;html=1;fillColor=#f8cecc;strokeColor=#b85450;" vertex="1" parent="1">
          <mxGeometry x="-320" y="160" width="650" height="540" as="geometry" />
        </mxCell>
        <mxCell id="_3YSMg3rCEPzZk0EX57V-1" value="" style="rounded=0;whiteSpace=wrap;html=1;fillColor=#e3c800;fontColor=#000000;strokeColor=#B09500;" vertex="1" parent="1">
          <mxGeometry x="342.5" y="420" width="367.5" height="280" as="geometry" />
        </mxCell>
        <mxCell id="KScwGlH4FzCPILjQy0N4-8" style="edgeStyle=orthogonalEdgeStyle;rounded=0;orthogonalLoop=1;jettySize=auto;html=1;" edge="1" parent="1" source="KScwGlH4FzCPILjQy0N4-1" target="KScwGlH4FzCPILjQy0N4-5">
          <mxGeometry relative="1" as="geometry" />
        </mxCell>
        <mxCell id="KScwGlH4FzCPILjQy0N4-16" value="Pull Metrics" style="edgeLabel;html=1;align=center;verticalAlign=middle;resizable=0;points=[];" vertex="1" connectable="0" parent="KScwGlH4FzCPILjQy0N4-8">
          <mxGeometry x="-0.1776" y="-3" relative="1" as="geometry">
            <mxPoint x="15" y="12" as="offset" />
          </mxGeometry>
        </mxCell>
        <mxCell id="KScwGlH4FzCPILjQy0N4-9" style="edgeStyle=orthogonalEdgeStyle;rounded=0;orthogonalLoop=1;jettySize=auto;html=1;entryX=0;entryY=0.5;entryDx=0;entryDy=0;entryPerimeter=0;" edge="1" parent="1" source="KScwGlH4FzCPILjQy0N4-1" target="KScwGlH4FzCPILjQy0N4-2">
          <mxGeometry relative="1" as="geometry" />
        </mxCell>
        <mxCell id="KScwGlH4FzCPILjQy0N4-10" value="RemoteWrite" style="edgeLabel;html=1;align=center;verticalAlign=middle;resizable=0;points=[];" vertex="1" connectable="0" parent="KScwGlH4FzCPILjQy0N4-9">
          <mxGeometry x="-0.4332" y="2" relative="1" as="geometry">
            <mxPoint x="20" y="17" as="offset" />
          </mxGeometry>
        </mxCell>
        <mxCell id="KScwGlH4FzCPILjQy0N4-30" value="RemoteWrite" style="edgeLabel;html=1;align=center;verticalAlign=middle;resizable=0;points=[];" vertex="1" connectable="0" parent="KScwGlH4FzCPILjQy0N4-9">
          <mxGeometry x="-0.4332" y="2" relative="1" as="geometry">
            <mxPoint x="681" y="-533" as="offset" />
          </mxGeometry>
        </mxCell>
        <mxCell id="KScwGlH4FzCPILjQy0N4-14" style="edgeStyle=orthogonalEdgeStyle;rounded=0;orthogonalLoop=1;jettySize=auto;html=1;" edge="1" parent="1" source="KScwGlH4FzCPILjQy0N4-1" target="KScwGlH4FzCPILjQy0N4-7">
          <mxGeometry relative="1" as="geometry" />
        </mxCell>
        <mxCell id="KScwGlH4FzCPILjQy0N4-15" value="Read Metrics" style="edgeLabel;html=1;align=center;verticalAlign=middle;resizable=0;points=[];" vertex="1" connectable="0" parent="KScwGlH4FzCPILjQy0N4-14">
          <mxGeometry x="-0.0611" y="3" relative="1" as="geometry">
            <mxPoint y="12" as="offset" />
          </mxGeometry>
        </mxCell>
        <mxCell id="KScwGlH4FzCPILjQy0N4-1" value="prometheus&lt;br&gt;" style="shape=cylinder3;whiteSpace=wrap;html=1;boundedLbl=1;backgroundOutline=1;size=15;fillColor=#ffe6cc;strokeColor=#d79b00;" vertex="1" parent="1">
          <mxGeometry x="150" y="470" width="97.5" height="130" as="geometry" />
        </mxCell>
        <mxCell id="KScwGlH4FzCPILjQy0N4-2" value="victoria&lt;br&gt;metrics" style="shape=cylinder3;whiteSpace=wrap;html=1;boundedLbl=1;backgroundOutline=1;size=15;fillColor=#d80073;fontColor=#ffffff;strokeColor=#A50040;" vertex="1" parent="1">
          <mxGeometry x="365" y="470" width="97.5" height="130" as="geometry" />
        </mxCell>
        <mxCell id="KScwGlH4FzCPILjQy0N4-11" style="edgeStyle=orthogonalEdgeStyle;rounded=0;orthogonalLoop=1;jettySize=auto;html=1;" edge="1" parent="1" source="KScwGlH4FzCPILjQy0N4-4" target="KScwGlH4FzCPILjQy0N4-2">
          <mxGeometry relative="1" as="geometry" />
        </mxCell>
        <mxCell id="KScwGlH4FzCPILjQy0N4-12" value="DataSource" style="edgeLabel;html=1;align=center;verticalAlign=middle;resizable=0;points=[];" vertex="1" connectable="0" parent="KScwGlH4FzCPILjQy0N4-11">
          <mxGeometry x="0.0417" y="-1" relative="1" as="geometry">
            <mxPoint y="36" as="offset" />
          </mxGeometry>
        </mxCell>
        <mxCell id="KScwGlH4FzCPILjQy0N4-43" style="edgeStyle=orthogonalEdgeStyle;rounded=0;orthogonalLoop=1;jettySize=auto;html=1;entryX=0.855;entryY=1;entryDx=0;entryDy=-4.35;entryPerimeter=0;" edge="1" parent="1" source="KScwGlH4FzCPILjQy0N4-4" target="KScwGlH4FzCPILjQy0N4-1">
          <mxGeometry relative="1" as="geometry">
            <Array as="points">
              <mxPoint x="629" y="630" />
              <mxPoint x="233" y="630" />
            </Array>
          </mxGeometry>
        </mxCell>
        <mxCell id="KScwGlH4FzCPILjQy0N4-44" value="Latest 2 Hours" style="edgeLabel;html=1;align=center;verticalAlign=middle;resizable=0;points=[];" vertex="1" connectable="0" parent="KScwGlH4FzCPILjQy0N4-43">
          <mxGeometry x="0.0475" y="-2" relative="1" as="geometry">
            <mxPoint x="-288" y="2" as="offset" />
          </mxGeometry>
        </mxCell>
        <mxCell id="KScwGlH4FzCPILjQy0N4-4" value="grafana" style="shape=cylinder3;whiteSpace=wrap;html=1;boundedLbl=1;backgroundOutline=1;size=15;fillColor=#e1d5e7;strokeColor=#9673a6;" vertex="1" parent="1">
          <mxGeometry x="580" y="470" width="97.5" height="130" as="geometry" />
        </mxCell>
        <mxCell id="KScwGlH4FzCPILjQy0N4-5" value="EXPORTERS" style="ellipse;shape=cloud;whiteSpace=wrap;html=1;fillColor=#d5e8d4;strokeColor=#82b366;" vertex="1" parent="1">
          <mxGeometry x="240" y="170" width="165" height="110" as="geometry" />
        </mxCell>
        <mxCell id="KScwGlH4FzCPILjQy0N4-13" value="Alert Rules" style="edgeStyle=orthogonalEdgeStyle;rounded=0;orthogonalLoop=1;jettySize=auto;html=1;entryX=0.5;entryY=1;entryDx=0;entryDy=0;entryPerimeter=0;" edge="1" parent="1" source="KScwGlH4FzCPILjQy0N4-6" target="KScwGlH4FzCPILjQy0N4-1">
          <mxGeometry relative="1" as="geometry" />
        </mxCell>
        <mxCell id="KScwGlH4FzCPILjQy0N4-22" style="edgeStyle=orthogonalEdgeStyle;rounded=0;orthogonalLoop=1;jettySize=auto;html=1;" edge="1" parent="1" source="KScwGlH4FzCPILjQy0N4-6" target="KScwGlH4FzCPILjQy0N4-20">
          <mxGeometry relative="1" as="geometry" />
        </mxCell>
        <mxCell id="KScwGlH4FzCPILjQy0N4-23" value="SEND" style="edgeLabel;html=1;align=center;verticalAlign=middle;resizable=0;points=[];" vertex="1" connectable="0" parent="KScwGlH4FzCPILjQy0N4-22">
          <mxGeometry x="-0.2364" y="-2" relative="1" as="geometry">
            <mxPoint x="2" y="13" as="offset" />
          </mxGeometry>
        </mxCell>
        <mxCell id="KScwGlH4FzCPILjQy0N4-35" value="SEND" style="edgeLabel;html=1;align=center;verticalAlign=middle;resizable=0;points=[];" vertex="1" connectable="0" parent="KScwGlH4FzCPILjQy0N4-22">
          <mxGeometry x="-0.2364" y="-2" relative="1" as="geometry">
            <mxPoint x="663" y="-537" as="offset" />
          </mxGeometry>
        </mxCell>
        <mxCell id="KScwGlH4FzCPILjQy0N4-6" value="alertmanager" style="shape=cylinder3;whiteSpace=wrap;html=1;boundedLbl=1;backgroundOutline=1;size=15;" vertex="1" parent="1">
          <mxGeometry x="150" y="750" width="97.5" height="130" as="geometry" />
        </mxCell>
        <mxCell id="KScwGlH4FzCPILjQy0N4-7" value="pushgateway" style="shape=cylinder3;whiteSpace=wrap;html=1;boundedLbl=1;backgroundOutline=1;size=15;fillColor=#fff2cc;strokeColor=#d6b656;" vertex="1" parent="1">
          <mxGeometry x="-80" y="470" width="97.5" height="130" as="geometry" />
        </mxCell>
        <mxCell id="KScwGlH4FzCPILjQy0N4-18" value="Alerts" style="swimlane;fontStyle=0;childLayout=stackLayout;horizontal=1;startSize=30;horizontalStack=0;resizeParent=1;resizeParentMax=0;resizeLast=0;collapsible=1;marginBottom=0;" vertex="1" parent="1">
          <mxGeometry x="440" y="740" width="140" height="150" as="geometry" />
        </mxCell>
        <mxCell id="KScwGlH4FzCPILjQy0N4-19" value="Item 1" style="text;strokeColor=none;fillColor=none;align=left;verticalAlign=middle;spacingLeft=4;spacingRight=4;overflow=hidden;points=[[0,0.5],[1,0.5]];portConstraint=eastwest;rotatable=0;" vertex="1" parent="KScwGlH4FzCPILjQy0N4-18">
          <mxGeometry y="30" width="140" height="30" as="geometry" />
        </mxCell>
        <mxCell id="KScwGlH4FzCPILjQy0N4-20" value="Item 2" style="text;strokeColor=none;fillColor=none;align=left;verticalAlign=middle;spacingLeft=4;spacingRight=4;overflow=hidden;points=[[0,0.5],[1,0.5]];portConstraint=eastwest;rotatable=0;" vertex="1" parent="KScwGlH4FzCPILjQy0N4-18">
          <mxGeometry y="60" width="140" height="30" as="geometry" />
        </mxCell>
        <mxCell id="KScwGlH4FzCPILjQy0N4-21" value="Item 3" style="text;strokeColor=none;fillColor=none;align=left;verticalAlign=middle;spacingLeft=4;spacingRight=4;overflow=hidden;points=[[0,0.5],[1,0.5]];portConstraint=eastwest;rotatable=0;" vertex="1" parent="KScwGlH4FzCPILjQy0N4-18">
          <mxGeometry y="90" width="140" height="30" as="geometry" />
        </mxCell>
        <mxCell id="KScwGlH4FzCPILjQy0N4-42" value="Item 2" style="text;strokeColor=none;fillColor=none;align=left;verticalAlign=middle;spacingLeft=4;spacingRight=4;overflow=hidden;points=[[0,0.5],[1,0.5]];portConstraint=eastwest;rotatable=0;" vertex="1" parent="KScwGlH4FzCPILjQy0N4-18">
          <mxGeometry y="120" width="140" height="30" as="geometry" />
        </mxCell>
        <mxCell id="KScwGlH4FzCPILjQy0N4-25" style="edgeStyle=orthogonalEdgeStyle;rounded=0;orthogonalLoop=1;jettySize=auto;html=1;entryX=-0.021;entryY=0.577;entryDx=0;entryDy=0;entryPerimeter=0;" edge="1" parent="1" source="KScwGlH4FzCPILjQy0N4-24" target="KScwGlH4FzCPILjQy0N4-6">
          <mxGeometry relative="1" as="geometry" />
        </mxCell>
        <mxCell id="KScwGlH4FzCPILjQy0N4-24" value="Alerta" style="shape=cylinder3;whiteSpace=wrap;html=1;boundedLbl=1;backgroundOutline=1;size=15;" vertex="1" parent="1">
          <mxGeometry x="-120" y="760" width="97.5" height="130" as="geometry" />
        </mxCell>
        <mxCell id="KScwGlH4FzCPILjQy0N4-27" style="edgeStyle=orthogonalEdgeStyle;rounded=0;orthogonalLoop=1;jettySize=auto;html=1;" edge="1" parent="1" source="KScwGlH4FzCPILjQy0N4-26" target="KScwGlH4FzCPILjQy0N4-7">
          <mxGeometry relative="1" as="geometry" />
        </mxCell>
        <mxCell id="KScwGlH4FzCPILjQy0N4-26" value="CUSTOM METRICS" style="ellipse;shape=cloud;whiteSpace=wrap;html=1;fillColor=#60a917;fontColor=#ffffff;strokeColor=#2D7600;" vertex="1" parent="1">
          <mxGeometry x="-280" y="220" width="210" height="140" as="geometry" />
        </mxCell>
        <mxCell id="KScwGlH4FzCPILjQy0N4-28" style="edgeStyle=orthogonalEdgeStyle;rounded=0;orthogonalLoop=1;jettySize=auto;html=1;entryX=0.5;entryY=0;entryDx=0;entryDy=0;entryPerimeter=0;" edge="1" parent="1" source="KScwGlH4FzCPILjQy0N4-33" target="KScwGlH4FzCPILjQy0N4-2">
          <mxGeometry relative="1" as="geometry">
            <mxPoint x="982.5" y="-270" as="targetPoint" />
          </mxGeometry>
        </mxCell>
        <mxCell id="KScwGlH4FzCPILjQy0N4-29" value="Pull Metrics" style="edgeLabel;html=1;align=center;verticalAlign=middle;resizable=0;points=[];" connectable="0" vertex="1" parent="KScwGlH4FzCPILjQy0N4-28">
          <mxGeometry x="-0.1776" y="-3" relative="1" as="geometry">
            <mxPoint x="15" y="12" as="offset" />
          </mxGeometry>
        </mxCell>
        <mxCell id="KScwGlH4FzCPILjQy0N4-31" style="edgeStyle=orthogonalEdgeStyle;rounded=0;orthogonalLoop=1;jettySize=auto;html=1;" edge="1" parent="1" source="KScwGlH4FzCPILjQy0N4-33" target="KScwGlH4FzCPILjQy0N4-37">
          <mxGeometry relative="1" as="geometry" />
        </mxCell>
        <mxCell id="KScwGlH4FzCPILjQy0N4-32" value="Read Metrics" style="edgeLabel;html=1;align=center;verticalAlign=middle;resizable=0;points=[];" vertex="1" connectable="0" parent="KScwGlH4FzCPILjQy0N4-31">
          <mxGeometry x="-0.0611" y="3" relative="1" as="geometry">
            <mxPoint y="12" as="offset" />
          </mxGeometry>
        </mxCell>
        <mxCell id="KScwGlH4FzCPILjQy0N4-33" value="prometheus&lt;br&gt;" style="shape=cylinder3;whiteSpace=wrap;html=1;boundedLbl=1;backgroundOutline=1;size=15;" vertex="1" parent="1">
          <mxGeometry x="810" y="-80" width="97.5" height="130" as="geometry" />
        </mxCell>
        <mxCell id="KScwGlH4FzCPILjQy0N4-34" value="Alert Rules" style="edgeStyle=orthogonalEdgeStyle;rounded=0;orthogonalLoop=1;jettySize=auto;html=1;entryX=0.5;entryY=1;entryDx=0;entryDy=0;entryPerimeter=0;" edge="1" parent="1" source="KScwGlH4FzCPILjQy0N4-36" target="KScwGlH4FzCPILjQy0N4-33">
          <mxGeometry relative="1" as="geometry" />
        </mxCell>
        <mxCell id="KScwGlH4FzCPILjQy0N4-36" value="alertmanager" style="shape=cylinder3;whiteSpace=wrap;html=1;boundedLbl=1;backgroundOutline=1;size=15;" vertex="1" parent="1">
          <mxGeometry x="810" y="200" width="97.5" height="130" as="geometry" />
        </mxCell>
        <mxCell id="KScwGlH4FzCPILjQy0N4-37" value="pushgateway" style="shape=cylinder3;whiteSpace=wrap;html=1;boundedLbl=1;backgroundOutline=1;size=15;" vertex="1" parent="1">
          <mxGeometry x="580" y="-80" width="97.5" height="130" as="geometry" />
        </mxCell>
        <mxCell id="KScwGlH4FzCPILjQy0N4-38" style="edgeStyle=orthogonalEdgeStyle;rounded=0;orthogonalLoop=1;jettySize=auto;html=1;entryX=-0.021;entryY=0.577;entryDx=0;entryDy=0;entryPerimeter=0;" edge="1" parent="1" source="KScwGlH4FzCPILjQy0N4-39" target="KScwGlH4FzCPILjQy0N4-36">
          <mxGeometry relative="1" as="geometry" />
        </mxCell>
        <mxCell id="KScwGlH4FzCPILjQy0N4-39" value="Alerta" style="shape=cylinder3;whiteSpace=wrap;html=1;boundedLbl=1;backgroundOutline=1;size=15;" vertex="1" parent="1">
          <mxGeometry x="540" y="210" width="97.5" height="130" as="geometry" />
        </mxCell>
        <mxCell id="KScwGlH4FzCPILjQy0N4-40" style="edgeStyle=orthogonalEdgeStyle;rounded=0;orthogonalLoop=1;jettySize=auto;html=1;" edge="1" parent="1" source="KScwGlH4FzCPILjQy0N4-41" target="KScwGlH4FzCPILjQy0N4-37">
          <mxGeometry relative="1" as="geometry" />
        </mxCell>
        <mxCell id="KScwGlH4FzCPILjQy0N4-41" value="CUSTOM METRICS" style="ellipse;shape=cloud;whiteSpace=wrap;html=1;" vertex="1" parent="1">
          <mxGeometry x="380" y="-330" width="210" height="140" as="geometry" />
        </mxCell>
        <mxCell id="KScwGlH4FzCPILjQy0N4-49" style="edgeStyle=orthogonalEdgeStyle;rounded=0;orthogonalLoop=1;jettySize=auto;html=1;" edge="1" parent="1" source="KScwGlH4FzCPILjQy0N4-45" target="KScwGlH4FzCPILjQy0N4-46">
          <mxGeometry relative="1" as="geometry" />
        </mxCell>
        <mxCell id="KScwGlH4FzCPILjQy0N4-50" style="edgeStyle=orthogonalEdgeStyle;rounded=0;orthogonalLoop=1;jettySize=auto;html=1;entryX=0;entryY=0.5;entryDx=0;entryDy=0;entryPerimeter=0;" edge="1" parent="1" source="KScwGlH4FzCPILjQy0N4-45" target="KScwGlH4FzCPILjQy0N4-47">
          <mxGeometry relative="1" as="geometry" />
        </mxCell>
        <mxCell id="KScwGlH4FzCPILjQy0N4-45" value="Zabbix&lt;br&gt;Server" style="shape=cylinder3;whiteSpace=wrap;html=1;boundedLbl=1;backgroundOutline=1;size=15;fillColor=#d5e8d4;strokeColor=#82b366;" vertex="1" parent="1">
          <mxGeometry x="1020" y="710" width="60" height="80" as="geometry" />
        </mxCell>
        <mxCell id="hs2WrZDqcmGkk6ZmQBit-5" style="edgeStyle=orthogonalEdgeStyle;rounded=0;orthogonalLoop=1;jettySize=auto;html=1;entryX=0.378;entryY=0.987;entryDx=0;entryDy=0;entryPerimeter=0;" edge="1" parent="1" source="KScwGlH4FzCPILjQy0N4-46" target="hs2WrZDqcmGkk6ZmQBit-2">
          <mxGeometry relative="1" as="geometry" />
        </mxCell>
        <mxCell id="hs2WrZDqcmGkk6ZmQBit-6" style="edgeStyle=orthogonalEdgeStyle;rounded=0;orthogonalLoop=1;jettySize=auto;html=1;" edge="1" parent="1" source="KScwGlH4FzCPILjQy0N4-46" target="hs2WrZDqcmGkk6ZmQBit-3">
          <mxGeometry relative="1" as="geometry" />
        </mxCell>
        <mxCell id="hs2WrZDqcmGkk6ZmQBit-7" style="edgeStyle=orthogonalEdgeStyle;rounded=0;orthogonalLoop=1;jettySize=auto;html=1;entryX=0.5;entryY=1;entryDx=0;entryDy=0;entryPerimeter=0;" edge="1" parent="1" source="KScwGlH4FzCPILjQy0N4-46" target="hs2WrZDqcmGkk6ZmQBit-4">
          <mxGeometry relative="1" as="geometry" />
        </mxCell>
        <mxCell id="p1zN5vO4xpq4eFc-nsA6-4" style="edgeStyle=orthogonalEdgeStyle;rounded=0;orthogonalLoop=1;jettySize=auto;html=1;" edge="1" parent="1" source="KScwGlH4FzCPILjQy0N4-46" target="p1zN5vO4xpq4eFc-nsA6-3">
          <mxGeometry relative="1" as="geometry">
            <Array as="points">
              <mxPoint x="975" y="590" />
              <mxPoint x="975" y="620" />
            </Array>
          </mxGeometry>
        </mxCell>
        <mxCell id="KScwGlH4FzCPILjQy0N4-46" value="Proxy" style="shape=cylinder3;whiteSpace=wrap;html=1;boundedLbl=1;backgroundOutline=1;size=15;fillColor=#fff2cc;strokeColor=#d6b656;" vertex="1" parent="1">
          <mxGeometry x="1020" y="530" width="60" height="80" as="geometry" />
        </mxCell>
        <mxCell id="KScwGlH4FzCPILjQy0N4-47" value="DB" style="shape=cylinder3;whiteSpace=wrap;html=1;boundedLbl=1;backgroundOutline=1;size=15;fillColor=#f8cecc;strokeColor=#b85450;" vertex="1" parent="1">
          <mxGeometry x="1170" y="710" width="60" height="80" as="geometry" />
        </mxCell>
        <mxCell id="KScwGlH4FzCPILjQy0N4-52" style="edgeStyle=orthogonalEdgeStyle;rounded=0;orthogonalLoop=1;jettySize=auto;html=1;entryX=0.606;entryY=1;entryDx=0;entryDy=0;entryPerimeter=0;" edge="1" parent="1" source="KScwGlH4FzCPILjQy0N4-51" target="KScwGlH4FzCPILjQy0N4-5">
          <mxGeometry relative="1" as="geometry" />
        </mxCell>
        <mxCell id="KScwGlH4FzCPILjQy0N4-51" value="prometheus&lt;br&gt;" style="shape=cylinder3;whiteSpace=wrap;html=1;boundedLbl=1;backgroundOutline=1;size=15;fillColor=#ffe6cc;strokeColor=#d79b00;" vertex="1" parent="1">
          <mxGeometry x="170" y="480" width="97.5" height="130" as="geometry" />
        </mxCell>
        <mxCell id="KScwGlH4FzCPILjQy0N4-53" value="victoria&lt;br&gt;metrics" style="shape=cylinder3;whiteSpace=wrap;html=1;boundedLbl=1;backgroundOutline=1;size=15;fillColor=#d80073;fontColor=#ffffff;strokeColor=#A50040;" vertex="1" parent="1">
          <mxGeometry x="375" y="480" width="97.5" height="130" as="geometry" />
        </mxCell>
        <mxCell id="KScwGlH4FzCPILjQy0N4-54" value="victoria&lt;br&gt;metrics" style="shape=cylinder3;whiteSpace=wrap;html=1;boundedLbl=1;backgroundOutline=1;size=15;fillColor=#d80073;fontColor=#ffffff;strokeColor=#A50040;" vertex="1" parent="1">
          <mxGeometry x="385" y="490" width="97.5" height="130" as="geometry" />
        </mxCell>
        <mxCell id="hs2WrZDqcmGkk6ZmQBit-1" value="&amp;nbsp;" style="text;html=1;resizable=0;autosize=1;align=center;verticalAlign=middle;points=[];fillColor=none;strokeColor=none;rounded=0;" vertex="1" parent="1">
          <mxGeometry x="365" y="305" width="30" height="30" as="geometry" />
        </mxCell>
        <mxCell id="hs2WrZDqcmGkk6ZmQBit-2" value="Agent" style="shape=cylinder3;whiteSpace=wrap;html=1;boundedLbl=1;backgroundOutline=1;size=15;" vertex="1" parent="1">
          <mxGeometry x="940" y="390" width="60" height="80" as="geometry" />
        </mxCell>
        <mxCell id="hs2WrZDqcmGkk6ZmQBit-3" value="Agent" style="shape=cylinder3;whiteSpace=wrap;html=1;boundedLbl=1;backgroundOutline=1;size=15;" vertex="1" parent="1">
          <mxGeometry x="1070" y="390" width="60" height="80" as="geometry" />
        </mxCell>
        <mxCell id="hs2WrZDqcmGkk6ZmQBit-4" value="Agent" style="shape=cylinder3;whiteSpace=wrap;html=1;boundedLbl=1;backgroundOutline=1;size=15;" vertex="1" parent="1">
          <mxGeometry x="1170" y="390" width="60" height="80" as="geometry" />
        </mxCell>
        <mxCell id="hs2WrZDqcmGkk6ZmQBit-9" style="edgeStyle=orthogonalEdgeStyle;rounded=0;orthogonalLoop=1;jettySize=auto;html=1;entryX=0;entryY=0.5;entryDx=0;entryDy=0;entryPerimeter=0;" edge="1" parent="1" source="hs2WrZDqcmGkk6ZmQBit-8" target="KScwGlH4FzCPILjQy0N4-45">
          <mxGeometry relative="1" as="geometry" />
        </mxCell>
        <mxCell id="hs2WrZDqcmGkk6ZmQBit-8" value="Zabbix&lt;br&gt;Web" style="shape=cylinder3;whiteSpace=wrap;html=1;boundedLbl=1;backgroundOutline=1;size=15;fillColor=#dae8fc;strokeColor=#6c8ebf;" vertex="1" parent="1">
          <mxGeometry x="880" y="710" width="60" height="80" as="geometry" />
        </mxCell>
        <mxCell id="xwoux7SG6Hf_ytSfCnKS-1" value="1. Нужен отдельный порт для связи с агентами&lt;br style=&quot;font-size: 18px;&quot;&gt;2. Сложность кастомных метрик&lt;br&gt;3. Быстродействие&lt;br&gt;4. HouseKeeper&lt;br&gt;5. Relation SUBD&lt;br&gt;6. Монолит&lt;br&gt;" style="text;html=1;strokeColor=none;fillColor=none;align=left;verticalAlign=middle;whiteSpace=wrap;rounded=0;fontSize=18;" vertex="1" parent="1">
          <mxGeometry x="-710" y="-1080" width="610" height="220" as="geometry" />
        </mxCell>
        <mxCell id="Kvf7qYv5A5P8EqgN3ZYo-1" value="DB" style="shape=cylinder3;whiteSpace=wrap;html=1;boundedLbl=1;backgroundOutline=1;size=15;fillColor=#f8cecc;strokeColor=#b85450;" vertex="1" parent="1">
          <mxGeometry x="1180" y="720" width="60" height="80" as="geometry" />
        </mxCell>
        <mxCell id="Kvf7qYv5A5P8EqgN3ZYo-2" value="DB" style="shape=cylinder3;whiteSpace=wrap;html=1;boundedLbl=1;backgroundOutline=1;size=15;fillColor=#f8cecc;strokeColor=#b85450;" vertex="1" parent="1">
          <mxGeometry x="1190" y="730" width="60" height="80" as="geometry" />
        </mxCell>
        <mxCell id="Kvf7qYv5A5P8EqgN3ZYo-3" style="edgeStyle=orthogonalEdgeStyle;rounded=0;orthogonalLoop=1;jettySize=auto;html=1;entryX=0.378;entryY=0.987;entryDx=0;entryDy=0;entryPerimeter=0;" edge="1" parent="1" target="Kvf7qYv5A5P8EqgN3ZYo-6">
          <mxGeometry relative="1" as="geometry">
            <mxPoint x="1340" y="560" as="sourcePoint" />
          </mxGeometry>
        </mxCell>
        <mxCell id="Kvf7qYv5A5P8EqgN3ZYo-4" style="edgeStyle=orthogonalEdgeStyle;rounded=0;orthogonalLoop=1;jettySize=auto;html=1;exitX=0.5;exitY=0;exitDx=0;exitDy=0;exitPerimeter=0;" edge="1" parent="1" source="Kvf7qYv5A5P8EqgN3ZYo-9" target="Kvf7qYv5A5P8EqgN3ZYo-7">
          <mxGeometry relative="1" as="geometry">
            <mxPoint x="1370" y="520" as="sourcePoint" />
          </mxGeometry>
        </mxCell>
        <mxCell id="Kvf7qYv5A5P8EqgN3ZYo-5" style="edgeStyle=orthogonalEdgeStyle;rounded=0;orthogonalLoop=1;jettySize=auto;html=1;entryX=0.5;entryY=1;entryDx=0;entryDy=0;entryPerimeter=0;" edge="1" parent="1" target="Kvf7qYv5A5P8EqgN3ZYo-8">
          <mxGeometry relative="1" as="geometry">
            <mxPoint x="1400" y="560" as="sourcePoint" />
          </mxGeometry>
        </mxCell>
        <mxCell id="Kvf7qYv5A5P8EqgN3ZYo-6" value="Agent" style="shape=cylinder3;whiteSpace=wrap;html=1;boundedLbl=1;backgroundOutline=1;size=15;" vertex="1" parent="1">
          <mxGeometry x="1260" y="380" width="60" height="80" as="geometry" />
        </mxCell>
        <mxCell id="Kvf7qYv5A5P8EqgN3ZYo-7" value="Agent" style="shape=cylinder3;whiteSpace=wrap;html=1;boundedLbl=1;backgroundOutline=1;size=15;" vertex="1" parent="1">
          <mxGeometry x="1390" y="380" width="60" height="80" as="geometry" />
        </mxCell>
        <mxCell id="Kvf7qYv5A5P8EqgN3ZYo-8" value="Agent" style="shape=cylinder3;whiteSpace=wrap;html=1;boundedLbl=1;backgroundOutline=1;size=15;" vertex="1" parent="1">
          <mxGeometry x="1490" y="380" width="60" height="80" as="geometry" />
        </mxCell>
        <mxCell id="Kvf7qYv5A5P8EqgN3ZYo-10" style="edgeStyle=orthogonalEdgeStyle;rounded=0;orthogonalLoop=1;jettySize=auto;html=1;entryX=0.855;entryY=0;entryDx=0;entryDy=4.35;entryPerimeter=0;" edge="1" parent="1" source="Kvf7qYv5A5P8EqgN3ZYo-9" target="KScwGlH4FzCPILjQy0N4-45">
          <mxGeometry relative="1" as="geometry">
            <Array as="points">
              <mxPoint x="1370" y="640" />
              <mxPoint x="1071" y="640" />
            </Array>
          </mxGeometry>
        </mxCell>
        <mxCell id="p1zN5vO4xpq4eFc-nsA6-2" style="edgeStyle=orthogonalEdgeStyle;rounded=0;orthogonalLoop=1;jettySize=auto;html=1;entryX=0;entryY=0.5;entryDx=0;entryDy=0;entryPerimeter=0;" edge="1" parent="1" source="Kvf7qYv5A5P8EqgN3ZYo-9" target="p1zN5vO4xpq4eFc-nsA6-1">
          <mxGeometry relative="1" as="geometry" />
        </mxCell>
        <mxCell id="Kvf7qYv5A5P8EqgN3ZYo-9" value="Proxy" style="shape=cylinder3;whiteSpace=wrap;html=1;boundedLbl=1;backgroundOutline=1;size=15;fillColor=#fff2cc;strokeColor=#d6b656;" vertex="1" parent="1">
          <mxGeometry x="1340" y="530" width="60" height="80" as="geometry" />
        </mxCell>
        <mxCell id="Kvf7qYv5A5P8EqgN3ZYo-11" style="edgeStyle=orthogonalEdgeStyle;rounded=0;orthogonalLoop=1;jettySize=auto;html=1;exitX=0;exitY=0;exitDx=0;exitDy=40;exitPerimeter=0;entryX=0.103;entryY=0.385;entryDx=0;entryDy=0;entryPerimeter=0;" edge="1" parent="1" source="KScwGlH4FzCPILjQy0N4-1" target="KScwGlH4FzCPILjQy0N4-1">
          <mxGeometry relative="1" as="geometry" />
        </mxCell>
        <mxCell id="p1zN5vO4xpq4eFc-nsA6-1" value="DB" style="shape=cylinder3;whiteSpace=wrap;html=1;boundedLbl=1;backgroundOutline=1;size=15;fillColor=#f8cecc;strokeColor=#b85450;" vertex="1" parent="1">
          <mxGeometry x="1480" y="590" width="60" height="80" as="geometry" />
        </mxCell>
        <mxCell id="p1zN5vO4xpq4eFc-nsA6-3" value="DB" style="shape=cylinder3;whiteSpace=wrap;html=1;boundedLbl=1;backgroundOutline=1;size=15;fillColor=#f8cecc;strokeColor=#b85450;" vertex="1" parent="1">
          <mxGeometry x="870" y="580" width="60" height="80" as="geometry" />
        </mxCell>
        <mxCell id="p1zN5vO4xpq4eFc-nsA6-6" style="edgeStyle=orthogonalEdgeStyle;rounded=0;orthogonalLoop=1;jettySize=auto;html=1;" edge="1" parent="1" source="p1zN5vO4xpq4eFc-nsA6-5" target="KScwGlH4FzCPILjQy0N4-33">
          <mxGeometry relative="1" as="geometry">
            <Array as="points">
              <mxPoint x="880" y="155" />
            </Array>
          </mxGeometry>
        </mxCell>
        <mxCell id="p1zN5vO4xpq4eFc-nsA6-5" value="grafana" style="shape=cylinder3;whiteSpace=wrap;html=1;boundedLbl=1;backgroundOutline=1;size=15;" vertex="1" parent="1">
          <mxGeometry x="1000" y="90" width="97.5" height="130" as="geometry" />
        </mxCell>
        <mxCell id="p1zN5vO4xpq4eFc-nsA6-7" value="Text" style="text;html=1;strokeColor=none;fillColor=none;align=center;verticalAlign=middle;whiteSpace=wrap;rounded=0;" vertex="1" parent="1">
          <mxGeometry x="780" y="310" width="60" height="30" as="geometry" />
        </mxCell>
        <mxCell id="SV0_4RjU2a-gxQIJYptf-8" style="edgeStyle=orthogonalEdgeStyle;rounded=0;orthogonalLoop=1;jettySize=auto;html=1;entryX=0;entryY=0.5;entryDx=0;entryDy=0;entryPerimeter=0;" edge="1" parent="1" source="SV0_4RjU2a-gxQIJYptf-4" target="SV0_4RjU2a-gxQIJYptf-6">
          <mxGeometry relative="1" as="geometry">
            <Array as="points">
              <mxPoint x="1295" y="840" />
              <mxPoint x="1295" y="850" />
            </Array>
          </mxGeometry>
        </mxCell>
        <mxCell id="SV0_4RjU2a-gxQIJYptf-4" value="Postgresql Patroni Cluster" style="text;html=1;strokeColor=none;fillColor=none;align=center;verticalAlign=middle;whiteSpace=wrap;rounded=0;" vertex="1" parent="1">
          <mxGeometry x="1180" y="830" width="80" height="50" as="geometry" />
        </mxCell>
        <mxCell id="SV0_4RjU2a-gxQIJYptf-5" value="Consul" style="shape=cylinder3;whiteSpace=wrap;html=1;boundedLbl=1;backgroundOutline=1;size=15;fillColor=#e1d5e7;strokeColor=#9673a6;" vertex="1" parent="1">
          <mxGeometry x="1320" y="800" width="60" height="80" as="geometry" />
        </mxCell>
        <mxCell id="SV0_4RjU2a-gxQIJYptf-6" value="Consul" style="shape=cylinder3;whiteSpace=wrap;html=1;boundedLbl=1;backgroundOutline=1;size=15;fillColor=#e1d5e7;strokeColor=#9673a6;" vertex="1" parent="1">
          <mxGeometry x="1330" y="810" width="60" height="80" as="geometry" />
        </mxCell>
        <mxCell id="SV0_4RjU2a-gxQIJYptf-7" value="Consul" style="shape=cylinder3;whiteSpace=wrap;html=1;boundedLbl=1;backgroundOutline=1;size=15;fillColor=#e1d5e7;strokeColor=#9673a6;" vertex="1" parent="1">
          <mxGeometry x="1340" y="820" width="60" height="80" as="geometry" />
        </mxCell>
        <mxCell id="SV0_4RjU2a-gxQIJYptf-9" value="UserParametr" style="text;html=1;strokeColor=none;fillColor=none;align=center;verticalAlign=middle;whiteSpace=wrap;rounded=0;" vertex="1" parent="1">
          <mxGeometry x="840" y="420" width="90" height="30" as="geometry" />
        </mxCell>
        <mxCell id="7AT1YL6ZUsIymU_WQe7E-1" value="KARMA&lt;div&gt;&lt;br&gt;&lt;/div&gt;" style="shape=cylinder3;whiteSpace=wrap;html=1;boundedLbl=1;backgroundOutline=1;size=15;" vertex="1" parent="1">
          <mxGeometry x="-190" y="740" width="97.5" height="130" as="geometry" />
        </mxCell>
      </root>
    </mxGraphModel>
  </diagram>
</mxfile>
